<svg width="300" height="120" viewBox="0 0 300 120" fill="none" xmlns="http://www.w3.org/2000/svg">
<mask id="mask0_294_922" style="mask-type:luminance" maskUnits="userSpaceOnUse" x="60" y="35" width="180" height="50">
<path d="M60 85H240V35H60V85Z" fill="white"/>
</mask>
<g mask="url(#mask0_294_922)">
<path d="M146.663 74.1255H141.08C141.055 74.1255 141.04 74.1206 141.025 74.1034L136.215 68.3317L131.4 74.1034C131.39 74.1206 131.373 74.1255 131.348 74.1255H126.878C126.85 74.1255 126.83 74.1132 126.81 74.0837C126.803 74.0665 126.803 74.0346 126.82 74.015L133.905 65.4655L126.903 56.9971C126.883 56.9676 126.883 56.9431 126.89 56.916C126.903 56.9013 126.93 56.8767 126.953 56.8767H132.538C132.555 56.8767 132.575 56.8866 132.59 56.9111L136.81 62.0492L141.105 56.9087C141.118 56.8866 141.138 56.8767 141.158 56.8767H145.71C145.738 56.8767 145.765 56.9013 145.775 56.916C145.788 56.9431 145.783 56.9725 145.765 56.9971L139.118 64.8392L146.71 74.015C146.73 74.0346 146.738 74.0665 146.723 74.0837C146.71 74.1132 146.685 74.1255 146.663 74.1255Z" fill="black"/>
<path d="M176.877 59.9178C174.405 59.9178 172.717 61.3914 172.235 63.9531H180.645V63.7885C180.645 61.7377 179.107 59.9178 176.877 59.9178ZM184.982 66.581C184.97 66.6007 184.945 66.613 184.922 66.613H172.145C172.41 69.5356 174.342 71.2008 177.47 71.2008C179.395 71.2008 181.44 70.5549 184.33 69.0444C184.382 69.015 184.435 69.0592 184.435 69.1132L184.43 72.9741C184.425 73.006 184.41 73.0257 184.387 73.033C181.7 74.1456 179 74.9045 176.877 74.9045C171.375 74.9045 167.387 70.9651 167.387 65.5397C167.387 60.1143 171.375 56.1748 176.877 56.1748C181.897 56.1748 185.122 59.4978 185.122 64.0685C185.122 64.8078 184.992 66.527 184.982 66.581Z" fill="black"/>
<path d="M210.939 53.3157C209.372 53.3157 208.097 52.0828 208.097 50.565C208.097 49.0029 209.372 47.7381 210.939 47.7381C212.507 47.7381 213.784 49.0029 213.784 50.565C213.784 52.0828 212.507 53.3157 210.939 53.3157ZM208.644 74.1257C208.599 74.1257 208.572 74.0987 208.572 74.0545V56.9482C208.572 56.9138 208.597 56.8868 208.627 56.8794H213.242C213.279 56.8868 213.299 56.9138 213.299 56.9482V74.0545C213.299 74.0987 213.269 74.1257 213.232 74.1257H208.644Z" fill="black"/>
<path d="M155.104 71.5495C154.271 71.5495 153.419 71.4341 152.439 71.1762L152.449 60.2026C153.596 59.844 154.594 59.6746 155.581 59.6746C158.781 59.6746 160.929 61.9931 160.929 65.4364C160.929 69.15 158.641 71.5495 155.104 71.5495ZM156.359 56.1772C155.056 56.1772 153.741 56.4105 152.361 56.8771H147.769C147.731 56.8771 147.704 56.9091 147.704 56.9484V85.0012C149.091 84.8146 150.791 84.3283 152.441 83.1739L152.439 74.6417C153.571 74.7988 154.506 74.9045 155.409 74.9045C161.699 74.9045 165.769 71.2007 165.769 65.4659C165.769 59.9988 161.896 56.1772 156.359 56.1772Z" fill="black"/>
<path d="M200.241 70.1291C198.804 70.8708 197.519 71.222 196.311 71.222C193.464 71.222 191.756 69.2449 191.756 65.9342C191.756 62.1028 193.936 59.6246 197.306 59.6246C198.236 59.6246 199.141 59.8481 200.241 60.3369V70.1291ZM200.241 47.8209V56.7756C198.894 56.3974 197.706 56.223 196.509 56.223C191.036 56.223 186.904 60.2755 186.904 65.6591C186.904 71.0182 190.549 74.9036 195.564 74.9036C197.301 74.9036 198.926 74.4763 200.839 73.5086L200.836 75.0535C202.099 74.8177 203.549 74.3216 204.979 73.3269V45.9887C203.574 46.1729 201.909 46.6347 200.241 47.8209Z" fill="black"/>
<path d="M229.289 70.095C227.899 70.8834 226.706 71.2616 225.641 71.2616C222.591 71.2616 220.764 69.2918 220.764 65.9688C220.764 62.1939 222.916 59.6617 226.116 59.6617C226.974 59.6617 228.014 59.9835 229.289 60.6466V70.095ZM234.031 56.6703C234.031 56.5647 233.939 56.4812 233.834 56.4812L230.104 56.4861C229.994 56.4861 229.901 56.5794 229.901 56.6826V57.3064H229.806C228.084 56.5647 226.616 56.2233 225.169 56.2233C220.009 56.2233 215.964 60.4256 215.964 65.8116C215.964 71.2567 219.584 74.9063 224.971 74.9063C226.414 74.9063 228.261 74.8081 229.991 72.8531V75.0537C231.214 74.7983 232.656 74.2874 234.026 73.3197L234.031 56.6703Z" fill="black"/>
<path d="M114.11 69.8449L125.695 69.84C125.52 71.1122 125.082 72.6006 124.077 74.1184H114.137H112.157H112.025C110.55 74.1184 109.337 72.996 109.192 71.5764C109.185 71.5543 109.177 71.5347 109.175 71.515V59.8587V49.0693C109.177 49.0521 109.185 49.0275 109.192 49.0128C109.337 47.5908 110.55 46.4634 112.025 46.4634C112.072 46.4634 112.117 46.4683 112.157 46.4683L125.67 46.4659C125.492 47.7357 125.055 49.2633 124.052 50.7762H114.11V56.8869H123.952C123.992 56.8869 124.022 56.9139 124.022 56.9532V61.1923C124.022 61.2267 123.992 61.2586 123.952 61.2586H114.11V69.84V69.8449Z" fill="black"/>
<path d="M99.6079 74.4748C98.4629 74.4748 97.7554 73.5955 97.7554 72.5198C97.7554 71.3679 98.5654 70.5648 99.6079 70.5648C100.64 70.5648 101.448 71.3679 101.448 72.5198C101.448 73.6741 100.64 74.4748 99.6079 74.4748ZM99.6079 70.3437C98.4354 70.3437 97.4329 71.2107 97.4329 72.5198C97.4329 73.7576 98.3379 74.6885 99.6079 74.6885C100.765 74.6885 101.773 73.8264 101.773 72.5198C101.773 71.2107 100.765 70.3437 99.6079 70.3437Z" fill="black"/>
<path d="M99.088 72.3409V71.5476H99.633C99.908 71.5476 100.233 71.5894 100.233 71.9185C100.233 72.309 99.933 72.3409 99.5905 72.3409H99.088ZM100.635 71.97C100.635 71.4518 100.31 71.2308 99.6805 71.2308H98.688V73.8022H99.1205V72.7019H99.5205L100.198 73.8022H100.685L99.9505 72.6725C100.348 72.6258 100.635 72.4367 100.635 71.97Z" fill="black"/>
<path d="M237.84 59.7246C236.695 59.7246 235.983 58.8453 235.983 57.7696C235.983 56.6177 236.795 55.8145 237.84 55.8145C238.87 55.8145 239.68 56.6177 239.68 57.7696C239.68 58.9239 238.87 59.7246 237.84 59.7246ZM237.84 55.5935C236.668 55.5935 235.665 56.4605 235.665 57.7696C235.665 59.0074 236.568 59.9382 237.84 59.9382C238.995 59.9382 240 59.0737 240 57.7696C240 56.4605 238.995 55.5935 237.84 55.5935Z" fill="black"/>
<path d="M237.318 57.5894V56.7986H237.863C238.138 56.7986 238.463 56.8379 238.463 57.167C238.463 57.56 238.161 57.5894 237.823 57.5894H237.318ZM238.866 57.2186C238.866 56.7004 238.541 56.4793 237.911 56.4793H236.918V59.0508H237.346V57.9529H237.751L238.428 59.0508H238.913L238.181 57.921C238.576 57.8768 238.866 57.6852 238.866 57.2186Z" fill="black"/>
<path d="M84.6636 50.7551L83.8236 48.4194L76.6986 39.0644L77.9786 38.7524L90.2636 49.1857L97.4936 47.1546C98.3436 46.9384 99.3086 46.8918 100.044 46.8967C97.7711 42.0828 93.6136 38.1311 88.1236 36.2104C77.271 32.411 65.3385 37.9813 61.4785 48.6478C60.2835 51.9463 59.9985 55.3503 60.501 58.5874L77.8211 52.6757L84.6636 50.7551Z" fill="black"/>
<path d="M100.805 48.7408C100.17 49.146 99.2379 49.6765 98.3129 49.9688L91.0679 51.9999L86.2329 67.247L84.9779 67.6473L85.9979 56.0033L85.4279 53.5841L78.6379 55.4875L60.6929 59.6382C62.1129 66.4242 67.0029 72.3335 74.1304 74.8288C84.9854 78.6283 96.9129 73.0555 100.773 62.3963C102.438 57.8011 102.33 53.0069 100.805 48.7408Z" fill="black"/>
<path d="M85.4272 53.5857L85.9997 56.0024L84.9772 67.6465L86.2322 67.2462L91.0672 52.0015L98.3122 49.9704C99.2372 49.6781 100.17 49.1427 100.805 48.7424C100.582 48.1161 100.327 47.4996 100.045 46.8979C99.3097 46.893 98.3447 46.9421 97.4947 47.1533L90.2647 49.1894L77.9772 38.7512L76.6997 39.0656L83.8222 48.4206L84.6647 50.7539L77.8197 52.6794L60.5022 58.5862C60.5572 58.9398 60.6197 59.291 60.6922 59.6398L78.6397 55.4891L85.4272 53.5857Z" fill="white"/>
</g>
</svg>
