<svg width="64" height="64" viewBox="0 0 64 64" fill="none" xmlns="http://www.w3.org/2000/svg">
<g clip-path="url(#clip0_1918_1477)">
<path d="M10.5862 12.3056C1.92515 16.3387 1.57042 20.6752 10.9271 24.1939C18.911 27.1964 19.5577 28.6558 28.0063 28.3397C36.455 28.0235 43.4337 24.6446 44.7217 22.9291C48.4005 18.0289 31.7612 10.2291 28.0063 10.1134C26.5161 10.0674 15.2802 10.1197 10.5862 12.3056Z" stroke="white" stroke-width="1.79874" stroke-miterlimit="10" stroke-linecap="round" stroke-linejoin="round"/>
<path d="M48.629 48.5815C44.9922 46.0738 36.5734 47.945 33.0377 49.526C30.6952 50.5736 28.5391 52.4498 30.3337 55.1502C31.9851 57.6349 35.9005 58.1496 38.5296 58.509C41.4041 58.9021 45.1873 59.3483 48.8284 59.1419C52.3138 58.9444 55.6691 58.1488 57.9727 56.1361C60.9995 53.4917 59.0605 50.3158 55.3857 49.7675C52.807 49.3827 48.629 48.5815 48.629 48.5815Z" stroke="white" stroke-width="1.79874" stroke-miterlimit="10" stroke-linecap="round" stroke-linejoin="round"/>
<path d="M34.4784 47.5779C34.3442 46.2704 32.292 44.542 32.292 44.542" stroke="white" stroke-width="1.79874" stroke-miterlimit="10" stroke-linecap="round" stroke-linejoin="round"/>
<path d="M42.8272 46.1519C42.7991 44.6369 42.9807 41.3672 42.9807 41.3672" stroke="white" stroke-width="1.79874" stroke-miterlimit="10" stroke-linecap="round" stroke-linejoin="round"/>
<path d="M48.8896 47.14C48.2549 46.6265 52.1888 43.1699 52.1888 43.1699" stroke="white" stroke-width="1.79874" stroke-miterlimit="10" stroke-linecap="round" stroke-linejoin="round"/>
<path d="M55.2234 49.7435C54.733 49.2157 59.4268 45.7534 59.4268 45.7534" stroke="white" stroke-width="1.79874" stroke-miterlimit="10" stroke-linecap="round" stroke-linejoin="round"/>
<path d="M12.8065 10.7412C10.9818 9.60675 7.78967 6.94348 8.59307 4.83838" stroke="white" stroke-width="1.79874" stroke-miterlimit="10" stroke-linecap="round" stroke-linejoin="round"/>
<path d="M23.964 10.1045C23.7374 7.89556 21.8569 6.19542 22.27 3.9707" stroke="white" stroke-width="1.79874" stroke-miterlimit="10" stroke-linecap="round" stroke-linejoin="round"/>
<path d="M31.8115 10.7412C31.8873 8.88167 32.0083 6.5738 32.6706 4.83838" stroke="white" stroke-width="1.79874" stroke-miterlimit="10" stroke-linecap="round" stroke-linejoin="round"/>
<path d="M41.062 13.528C40.9223 12.1663 43.536 11.0434 44.4437 10.5107" stroke="white" stroke-width="1.79874" stroke-miterlimit="10" stroke-linecap="round" stroke-linejoin="round"/>
<path d="M26.1287 28.3823C34.4779 28.3823 30.5465 10.5112 26.6288 10.1047C22.7111 9.69821 18.0552 28.3823 26.1287 28.3823Z" fill="white" stroke="white" stroke-width="1.79874" stroke-miterlimit="10" stroke-linecap="round" stroke-linejoin="round"/>
<path d="M45.2491 48.5817C41.3588 47.6507 39.88 58.6761 43.7906 58.966C46.8704 59.1943 50.1564 49.7561 45.2491 48.5817Z" fill="white" stroke="white" stroke-width="1.79874" stroke-miterlimit="10" stroke-linecap="round" stroke-linejoin="round"/>
</g>
<defs>
<clipPath id="clip0_1918_1477">
<rect width="64" height="63.5291" fill="white"/>
</clipPath>
</defs>
</svg>
