<svg width="64" height="64" viewBox="0 0 64 64" fill="none" xmlns="http://www.w3.org/2000/svg">
<g clip-path="url(#clip0_1918_1576)">
<path d="M22.2037 28.761C22.2037 28.761 21.203 21.8325 20.6573 19.6292C19.6666 15.6288 18.9437 10.6742 16.8479 7.14837C15.7487 5.29902 12.0745 3.75251 9.52623 7.29525C6.97791 10.838 10.0943 22.9792 10.903 27.0608C11.6681 30.9221 13.2497 42.8749 18.5395 51.4557C23.8293 60.0366 40.2834 61.2788 45.3727 54.8214C50.4618 48.3641 50.7678 39.9021 52.9092 31.2559C53.5597 28.6297 53.128 25.0972 48.7072 23.4751C44.2863 21.8529 39.7715 27.3053 42.7786 27.9329C46.2027 28.6476 44.5761 20.2951 39.0397 20.1932C33.5033 20.0913 32 30.9716 32 30.5567C32 23.8651 33.5693 15.6479 32.7428 8.97437C32.5129 7.11756 32 3.52795 27.9378 3.60271C22.0018 3.71195 22.503 10.8474 22.3402 19.0116C22.2498 23.5391 22.2037 28.761 22.2037 28.761Z" stroke="white" stroke-width="2.8125" stroke-miterlimit="10" stroke-linecap="round" stroke-linejoin="round"/>
<path opacity="0.995241" d="M23.8291 34.8515C27.4629 32.4061 35.8811 31.2623 40.3002 31.2623C41.7449 31.2623 43.8362 31.0829 44.711 32.5545C47.3866 37.0558 40.5971 39.0509 37.6315 40.7615C36.6334 41.3372 33.9795 42.4628 33.9795 42.4628" stroke="white" stroke-width="2.8125" stroke-miterlimit="10" stroke-linecap="round" stroke-linejoin="round"/>
</g>
<defs>
<clipPath id="clip0_1918_1576">
<rect width="64" height="64" fill="white"/>
</clipPath>
</defs>
</svg>
