<svg width="64" height="64" viewBox="0 0 64 64" fill="none" xmlns="http://www.w3.org/2000/svg">
<path d="M31.7003 13.3672C29.9457 9.41955 31.3597 6.27886 34.8355 3.96171C35.9148 3.24218 37.897 2.17289 39.2616 2.85518C42.5567 4.50268 38.5299 12.238 37.6018 14.1972C37.46 14.4966 38.3262 12.9899 38.985 11.8919C41.0351 8.47499 43.4627 6.05739 47.1918 4.60719C48.1702 4.22668 50.4811 3.74703 51.3413 4.60719C54.6742 7.94011 49.2048 13.7236 46.3619 15.3959C45.2127 16.0719 43.7793 16.7117 42.489 17.0557C42.0809 17.1646 51.4218 13.0299 56.0441 15.9492C57.692 16.99 59.8374 18.4549 59.4559 20.7442C58.6103 25.8179 52.1564 26.8996 48.1139 26.7379C46.2326 26.6627 44.4066 24.7379 45.0709 25.3547C48.3825 28.4297 49.917 36.4677 45.1632 38.6332C40.4092 40.7986 38.2524 37.9118 37.1407 34.3914C36.7219 33.0649 36.1172 27.8536 35.942 28.0289C35.4157 28.5552 35.5239 30.774 35.2043 31.5329C33.5569 35.4457 30.3432 38.4328 26.0754 36.5123C25.3052 36.1657 22.9399 33.6519 22.7558 32.7316C21.9211 28.5584 22.5486 27.4984 25.7065 24.3404C26.7822 23.2647 30.9999 20.6703 30.5015 20.8364C28.7872 21.4078 26.9405 21.4601 25.1533 21.6663C21.8198 22.0509 18.9751 21.8507 18.514 16.7791C18.053 11.7075 29.0713 7.02536 32.1614 14.7504" stroke="white" stroke-width="2.85029" stroke-miterlimit="10" stroke-linecap="round" stroke-linejoin="round"/>
<path d="M35.7008 32C35.7008 40.3058 31.4574 50.4641 24.6404 55.302C22.196 57.0367 18.8936 58.6336 15.9424 59.2751C15.9344 59.2769 13.4726 59.5831 13.4726 59.2751C13.4726 59.1489 14.251 58.9666 14.3317 58.8456C14.5035 58.5878 14.7179 57.5696 14.7612 57.3422C15.1434 55.3354 15.426 53.2615 15.5129 51.2214C15.608 48.9845 15.54 46.0004 14.2242 44.0268C13.245 42.5579 10.4269 42.1082 9.92898 44.349C9.44417 46.5304 10.9692 50.6202 11.4323 52.6174C11.8955 54.6148 12.468 56.5901 13.1504 58.5235" stroke="white" stroke-width="3.31924" stroke-miterlimit="10" stroke-linecap="round" stroke-linejoin="round"/>
<path d="M33.4893 21.0083C33.4893 18.5481 35.0563 16.5537 36.9894 16.5537C38.9225 16.5537 40.4896 18.5481 40.4896 21.0083C40.4896 23.4685 38.9225 25.4628 36.9894 25.4628C35.0563 25.4628 33.4893 23.4685 33.4893 21.0083Z" fill="white"/>
</svg>
