<svg width="64" height="64" viewBox="0 0 64 64" fill="none" xmlns="http://www.w3.org/2000/svg">
<g clip-path="url(#clip0_1918_1495)">
<path d="M58.6494 12.376C47.8336 14.6816 36.2109 17.427 28.6631 21.9556C26.2287 23.4163 20.9335 27.0792 21.6194 30.5088C22.2207 33.5156 29.3679 29.4863 32.5049 27.7865C33.2177 27.4003 33.9058 27.0086 34.1553 26.8502C34.2938 26.7623 34.8914 27.241 35.6919 27.7082C40.1109 30.2875 53.4351 38.9336 53.6181 39.6657" stroke="white" stroke-width="2.8503" stroke-miterlimit="10" stroke-linecap="round" stroke-linejoin="round"/>
<path d="M49.3915 10.5849C48.4064 9.9282 55.4096 23.2955 56.7371 26.2824C57.3974 27.7681 58.069 29.2352 58.7496 30.7099C58.8821 30.9971 59.3534 32.4041 59.3534 32.018" stroke="white" stroke-width="2.8503" stroke-miterlimit="10" stroke-linecap="round" stroke-linejoin="round"/>
<path d="M60.8633 25.439V25.6403V25.9421L61.1652 26.0427H61.467L61.7689 25.7408M61.7689 25.7408L62.0708 25.3384L62.272 24.9358V24.5334L62.1714 24.2315L61.8696 24.1309H61.6683L61.3665 24.2315L61.1652 24.5334L61.0646 24.8352V25.1371L61.1652 25.6403L61.3665 25.7408H61.5677H61.7689ZM61.7689 25.7408L61.9701 25.439L62.0708 25.1371V24.8352V24.5334L61.8696 24.4327L61.5677 24.634V24.8352" stroke="white" stroke-width="2.8503" stroke-miterlimit="10" stroke-linecap="round" stroke-linejoin="round"/>
<path d="M27.4425 22.5118C24.6611 20.6575 4.79385 11.3066 4.89 11.3066" stroke="white" stroke-width="2.8503" stroke-miterlimit="10" stroke-linecap="round" stroke-linejoin="round"/>
<path d="M19.1786 11.6328C15.9078 16.866 12.784 22.208 10.0216 27.7328C9.17732 29.4215 5.94076 35.6263 6.09729 35.0784" stroke="white" stroke-width="2.8503" stroke-miterlimit="10" stroke-linecap="round" stroke-linejoin="round"/>
<path d="M3.17904 26.1386C3.50523 25.7484 4.18529 28.0173 4.18529 26.1889C4.18529 25.1368 2.85113 26.3416 2.67592 26.692C2.11579 27.8123 4.42805 27.4337 4.78904 26.5914C5.44902 25.0514 2.64761 26.7742 3.17904 26.1386Z" stroke="white" stroke-width="2.8503" stroke-miterlimit="10" stroke-linecap="round" stroke-linejoin="round"/>
<path d="M10.8838 41.4281C11.8993 38.2655 17.0979 37.8747 18.7065 40.5985C19.2687 41.5505 18.1731 45.2328 17.3047 45.8484C16.5153 46.4079 18.0258 44.0301 18.5977 43.2498C19.8784 41.5023 22.1572 41.0305 24.0236 42.131C26.4155 43.5414 25.6765 46.2537 24.4921 48.2217C24.2986 48.5432 23.9374 49.2011 23.9374 49.2011C23.9374 49.2011 24.82 47.4633 25.6229 47.0124C26.9441 46.2703 28.563 46.1915 29.826 47.1171C32.1168 48.7959 29.4014 51.1603 28.9016 52.7168" stroke="white" stroke-width="2.8503" stroke-miterlimit="10" stroke-linecap="round" stroke-linejoin="round"/>
<path d="M53.606 39.6652C54.5527 41.3892 53.1656 42.8266 51.5233 42.6274C47.2393 42.1079 37.7652 35.9785 37.6874 35.9785C36.635 35.9785 53.4369 43.1151 50.1965 46.2764C47.8332 48.582 44.4667 45.7663 42.2126 44.921C41.7866 44.7613 35.3138 41.1614 35.4033 41.233C37.5443 42.9458 48.1481 46.4513 45.4699 50.9001C43.7418 53.7707 35.0374 46.5406 33.8509 45.9663C33.7052 45.8957 42.9748 50.9409 40.8289 53.7707C39.4465 55.5937 34.9019 52.1455 33.7559 51.5724" stroke="white" stroke-width="2.8503" stroke-miterlimit="10" stroke-linecap="round" stroke-linejoin="round"/>
</g>
<defs>
<clipPath id="clip0_1918_1495">
<rect width="64" height="64" fill="white"/>
</clipPath>
</defs>
</svg>
