<svg width="64" height="63" viewBox="0 0 64 63" fill="none" xmlns="http://www.w3.org/2000/svg">
<g clip-path="url(#clip0_652_36)">
<mask id="mask0_652_36" style="mask-type:luminance" maskUnits="userSpaceOnUse" x="0" y="0" width="47" height="63">
<path d="M46.4258 0H0V62.4578H46.4258V0Z" fill="white"/>
</mask>
<g mask="url(#mask0_652_36)">
<path d="M23.2055 62.4575C15.7484 62.4575 8.28954 62.4575 0.832578 62.4575C0.280212 62.4575 0.00402802 62.1863 0.00402802 61.6438C0.00402802 49.2552 -0.00756011 36.8665 0.00982208 24.48C0.0156161 20.9745 1.32894 17.9916 3.88218 15.5852C4.506 14.9971 5.23221 14.5151 5.93135 14.0118C6.21139 13.8113 6.33114 13.5876 6.32921 13.2502C6.31955 12.0952 6.32921 10.9402 6.32534 9.7833C6.31763 6.49575 7.63867 3.8522 10.2576 1.88352C11.4299 1.00234 12.7645 0.460518 14.2362 0.215637C16.4456 -0.148789 18.6609 0.0710239 20.8723 0.040173C22.1973 0.0228191 23.5395 0.0748803 24.8471 0.271554C26.0986 0.458589 27.2419 1.03126 28.2732 1.79482C29.7894 2.9151 30.8941 4.34774 31.4696 6.13709C31.7362 6.96622 31.8694 7.85125 31.9467 8.72279C32.0259 9.63097 31.964 10.5507 31.964 11.4647C31.964 11.948 32.199 12.1897 32.669 12.1897C35.1449 12.1897 37.6211 12.153 40.0951 12.2012C42.092 12.2417 43.6797 13.1846 44.9215 14.704C46.0205 16.0499 46.428 17.6214 46.4242 19.3548C46.4068 33.4595 46.4145 47.5661 46.4145 61.6708C46.4145 62.1965 46.1518 62.4594 45.6265 62.4594C38.1522 62.4594 30.6778 62.4594 23.2055 62.4594V62.4575ZM44.6048 42.1498C44.6588 42.1305 44.7129 42.1132 44.7652 42.0939C44.7787 41.878 44.8018 41.664 44.8018 41.4479C44.8018 34.0823 44.8114 26.7185 44.7902 19.3529C44.7883 18.6433 44.7033 17.901 44.4812 17.2319C43.724 14.9624 41.8989 13.7727 39.9174 13.6686C37.4337 13.5375 34.9363 13.6416 32.445 13.632C32.0936 13.632 31.9486 13.7477 31.9602 14.1044C31.9775 14.6018 31.964 15.0993 31.964 15.5968C31.964 20.6198 31.964 25.6407 31.9602 30.6636C31.9602 30.8642 31.9255 31.2228 31.8559 31.2363C31.4406 31.3153 31.0061 31.3481 30.5851 31.3095C30.504 31.3018 30.4035 30.9124 30.4035 30.7002C30.3939 23.6083 30.3977 16.5165 30.3939 9.42465C30.3939 7.11662 29.6309 5.12094 27.9064 3.54369C26.6761 2.41956 25.245 1.6772 23.553 1.65407C20.7409 1.6155 17.927 1.60972 15.1169 1.68299C14.325 1.7042 13.4868 1.92208 12.7664 2.2576C9.61058 3.71915 8.01721 6.27207 7.92258 9.71003C7.84919 12.3555 7.91485 15.0048 7.90134 17.6522C7.89939 18.0649 8.01721 18.221 8.4479 18.2114C9.57195 18.1863 10.6979 18.2076 11.822 18.2018C12.1735 18.2018 12.4033 18.3175 12.469 18.6973C12.7934 20.5755 13.1276 22.4515 13.4559 24.3295C13.5525 24.881 13.6413 25.4344 13.7437 25.9858C13.7939 26.2616 13.9272 26.4602 14.2536 26.4583C15.2018 26.4544 16.1501 26.4563 17.0984 26.4563C17.3785 26.4563 17.4905 26.3117 17.5137 26.0399C17.5716 25.3689 17.5794 25.3708 18.2746 25.3689C18.404 25.3689 18.5334 25.3824 18.6609 25.367C19.0452 25.3207 19.1592 25.4865 19.1534 25.8643C19.1341 27.324 19.1592 28.7836 19.1418 30.2452C19.1283 31.5314 19.3948 31.3442 17.9791 31.3654C17.6218 31.3712 17.5002 31.2189 17.5079 30.8739C17.5233 30.1045 17.4905 29.3332 17.5214 28.5639C17.5388 28.1165 17.3823 27.9815 16.942 27.9892C15.6248 28.0124 14.3057 28.0085 12.9885 27.9854C12.807 27.9815 12.5385 27.8639 12.469 27.7213C12.3299 27.4416 12.2836 27.11 12.2295 26.7956C11.8568 24.6497 11.4821 22.5016 11.1306 20.3516C11.0591 19.9083 10.8524 19.7731 10.4198 19.7809C9.31123 19.8042 8.20262 19.7907 7.09403 19.7868C6.4335 19.7849 6.32921 19.6787 6.32728 19.0367C6.32341 18.1381 6.32921 17.2396 6.32341 16.3411C6.32341 16.1618 6.279 15.9805 6.25583 15.807C6.15925 15.807 6.12256 15.7954 6.09744 15.8089C6.02598 15.8455 5.95645 15.886 5.89465 15.9323C4.58327 16.9292 3.54614 18.1574 2.81995 19.6343C2.23861 20.8145 1.75383 21.9597 2.11113 23.3866C2.61715 25.4017 2.88561 27.4763 3.25835 29.5241C3.52295 30.9741 3.79913 32.4222 4.06373 33.8722C4.43069 35.8736 4.78992 37.8751 5.15495 39.8765C5.34421 40.9159 5.53735 41.9551 5.72663 42.9944C5.93521 44.1437 6.138 45.2966 6.35046 46.4459C6.61891 47.894 6.94531 49.3342 7.14618 50.7919C7.25627 51.5844 7.43587 52.2073 8.21228 52.6046C9.13741 53.0769 9.96208 53.825 11.1267 53.3816C11.2542 53.3332 11.4145 53.372 11.5574 53.3585C12.4825 53.2716 13.4096 53.1867 14.3347 53.0884C15.6403 52.9477 16.9459 52.7954 18.2514 52.647C19.1901 52.5388 20.1308 52.4309 21.0694 52.3229C22.1662 52.1957 23.2633 52.055 24.3623 51.9393C25.3336 51.8371 26.3129 51.7791 27.2824 51.6654C29.0323 51.4572 30.7744 51.2047 32.5242 51.0001C34.5926 50.7572 36.663 50.5394 38.7355 50.3254C40.5838 50.1344 42.434 49.9628 44.2842 49.7913C44.5468 49.7662 44.7515 49.718 44.7979 49.4055C44.8654 48.9487 44.7748 48.8234 44.3035 48.8234C42.2312 48.8234 40.1568 48.8311 38.0845 48.8234C37.8933 48.8234 37.5496 48.7501 37.5361 48.6689C37.4723 48.2815 37.4375 47.8668 37.5264 47.4929C37.5553 47.3753 37.9976 47.3001 38.2507 47.2982C40.2437 47.2827 42.237 47.2847 44.23 47.2904C44.5874 47.2904 44.8095 47.2153 44.8114 46.789C44.8134 46.3457 44.5662 46.2934 44.2204 46.305C43.9307 46.3146 43.6411 46.305 43.3533 46.305C42.2601 46.305 41.1669 46.2973 40.0739 46.3069C39.6606 46.3108 39.421 46.1797 39.4829 45.7209C39.4963 45.611 39.4983 45.4952 39.4829 45.3853C39.4113 44.8899 39.6392 44.749 40.1124 44.7586C41.3176 44.7838 42.5229 44.7682 43.7279 44.7644C43.9095 44.7644 44.091 44.7277 44.2823 44.7085C44.0891 44.0704 43.8399 43.8639 43.2991 43.8601C42.8974 43.8562 42.4957 43.8601 42.0939 43.8601C41.0742 43.8601 41.0879 43.8601 41.1091 42.8633C41.1168 42.4854 41.2596 42.3445 41.6286 42.3677C41.9511 42.3869 42.2755 42.3715 42.6792 42.3715C42.4783 41.8703 42.3083 41.5135 41.8487 41.5116C40.0332 41.4981 38.2158 41.4981 36.4004 41.5231C36.242 41.525 35.9794 41.7354 35.9465 41.8896C35.7417 42.8286 35.57 43.7753 35.4327 44.7239C35.373 45.1328 35.1933 45.2581 34.8012 45.2581C28.5976 45.2503 22.3943 45.2503 16.1907 45.2581C15.7793 45.2581 15.5939 45.1193 15.534 44.6892C15.3911 43.6924 15.196 42.7013 15.0126 41.7084C14.636 39.6779 14.2497 37.6494 13.8712 35.6191C13.6741 34.5643 13.5119 33.5019 13.2802 32.4569C13.0754 31.5353 13.0542 31.516 13.9214 31.2247C14.5259 31.0223 14.6978 31.1187 14.8156 31.7492C14.9527 32.4897 15.0705 33.232 15.2096 33.9705C15.4819 35.4341 15.7677 36.8974 16.0381 38.3609C16.3394 39.9979 16.6446 41.6349 16.9188 43.2779C16.9941 43.729 17.2047 43.8196 17.6276 43.8177C22.738 43.8042 27.8483 43.808 32.9606 43.808C33.8684 43.808 33.9147 43.8157 34.077 42.9442C34.3106 41.6872 34.5869 40.4222 34.6331 39.1534C34.722 36.7335 34.6564 34.3079 34.6642 31.8861C34.6642 31.7068 34.722 31.3828 34.7954 31.3712C35.1952 31.3018 35.6201 31.2498 36.0122 31.3211C36.1416 31.3442 36.2767 31.755 36.2786 31.9902C36.2981 34.4293 36.2904 36.8685 36.2904 39.3078C36.2904 39.9632 36.2942 39.9632 36.9662 39.9632C38.7334 39.9632 40.5026 39.9921 42.2697 39.9478C42.882 39.9324 43.2529 40.1292 43.5542 40.6458C43.8632 41.1761 44.2553 41.6583 44.6125 42.1595L44.6048 42.1498ZM10.8756 60.9689C11.1286 60.9843 11.3604 61.0113 11.5922 61.0113C22.4097 61.0132 33.2272 61.0113 44.0427 61.0113C44.1549 61.0113 44.2688 61.0055 44.3808 61.0113C44.6879 61.0287 44.8211 60.8918 44.8056 60.5834C44.7922 60.3114 44.8037 60.0376 44.8037 59.7658C44.8037 57.0855 44.8018 54.4054 44.8076 51.7271C44.8076 51.4167 44.7864 51.1796 44.3769 51.2278C43.5484 51.3261 42.7197 51.4071 41.8911 51.5035C40.7459 51.6384 39.6026 51.7907 38.4554 51.9181C37.4838 52.0261 36.5105 52.107 35.537 52.2053C34.8031 52.2786 34.0693 52.3538 33.3392 52.4405C32.2422 52.5735 31.147 52.7318 30.0483 52.8552C29.0129 52.9708 27.9738 53.0537 26.9387 53.1578C26.1564 53.2369 25.3763 53.3236 24.5959 53.4163C23.4507 53.5513 22.3073 53.7016 21.1602 53.8308C20.1886 53.9387 19.2133 54.0158 18.2418 54.1199C16.9034 54.2628 15.5669 54.4093 14.2304 54.5674C13.1971 54.6888 12.1658 54.8315 11.1344 54.9647C10.1552 55.0919 9.19148 55.1902 8.35327 54.4652C8.06743 54.2184 7.69661 54.0698 7.36829 53.8713C7.04574 53.6766 6.8217 53.6862 6.57449 54.0428C5.34616 55.8208 4.08497 57.5773 2.83925 59.3435C2.48389 59.8487 2.1401 60.3615 1.78474 60.8802C2.44141 61.1424 2.69827 61.0634 3.07487 60.5197C4.16223 58.9541 5.24572 57.3884 6.3408 55.8285C7.00711 54.8797 7.03609 54.8854 7.94383 55.597C8.20069 55.7976 8.22386 55.9904 8.03846 56.2468C7.45133 57.0643 6.86807 57.8877 6.28865 58.7129C5.78458 59.4283 5.28821 60.1475 4.78221 60.8744C5.44659 61.1655 5.83865 61.0557 6.18242 60.541C6.72515 59.7311 7.26978 58.9232 7.82793 58.123C8.45949 57.2166 8.46142 57.2282 9.37108 57.8876C9.655 58.0941 9.6859 58.3023 9.48505 58.576C9.23977 58.9117 8.99834 59.249 8.76464 59.5921C8.47302 60.0203 8.19104 60.4542 7.89554 60.8995C8.55607 61.1173 8.78782 61.0479 9.1007 60.5795C9.26872 60.3268 9.43483 60.0704 9.60478 59.8179C9.93891 59.3203 10.02 59.3049 10.5087 59.6463C10.9825 59.9765 11.1054 60.4176 10.8776 60.9689H10.8756ZM1.80212 30.7137C1.76929 30.7195 1.73645 30.7274 1.70362 30.7331V58.0748C1.90834 57.8356 2.02808 57.7161 2.12466 57.5811C3.0884 56.2237 4.056 54.8681 5.0043 53.4992C5.42533 52.8937 5.89079 52.3499 5.6629 51.463C5.29594 50.0399 5.07963 48.5784 4.81503 47.1285C4.45386 45.1597 4.11009 43.1871 3.75279 41.2185C3.21008 38.224 2.66737 35.2315 2.11886 32.2389C2.02616 31.728 1.90834 31.2209 1.80019 30.7137H1.80212Z" fill="white"/>
<path d="M26.8574 15.0997C26.8651 16.8273 25.6813 17.8261 24.1882 18.1192C24.0859 18.1385 23.8831 18.1134 23.8754 18.0768C23.7942 17.7027 23.7034 17.321 23.7034 16.9411C23.7034 16.8061 23.9197 16.594 24.0762 16.5477C24.8294 16.3241 25.2234 15.8536 25.2234 15.1016C25.2234 14.2937 24.8352 13.8406 24.0067 13.615C23.8792 13.5803 23.7846 13.399 23.6919 13.2737C23.661 13.2313 23.6822 13.1483 23.6784 13.0847C23.6456 12.0782 23.9585 11.8468 24.9028 12.246C26.164 12.7781 26.8728 13.7557 26.8593 15.0997H26.8574Z" fill="white"/>
<path d="M14.8155 12.9131C14.8155 13.3938 14.5811 13.6349 14.1124 13.6361C13.3901 13.6361 12.6678 13.6458 11.9455 13.6342C11.6364 13.6284 11.4665 13.7287 11.5688 14.0526C11.6924 14.4479 11.5206 14.6195 11.1555 14.6831C11.1092 14.6909 11.0648 14.7159 11.0184 14.7294C10.2652 14.9473 10.13 14.8914 9.95811 14.1567C9.80553 13.5031 9.71283 12.8359 9.57762 12.1784C9.4965 11.787 9.67227 11.6019 10.0315 11.546C10.2517 11.5113 10.4873 11.4515 10.6959 11.4939C10.862 11.5286 11.0899 11.6752 11.1324 11.8179C11.227 12.1418 11.4124 12.1958 11.7002 12.1919C12.5017 12.1804 13.3051 12.1881 14.1066 12.1881C14.5779 12.1881 14.8135 12.4304 14.8135 12.915L14.8155 12.9131Z" fill="white"/>
</g>
<path d="M63.9372 56.0347C63.9372 57.2821 63.6706 58.3915 63.1374 59.3631C62.5926 60.3347 61.839 61.0963 60.8771 61.6482C59.915 62.1879 58.8197 62.4578 57.5911 62.4578C56.3508 62.4578 55.2497 62.1879 54.2876 61.6482C53.3257 61.0963 52.5781 60.3347 52.0449 59.3631C51.5117 58.3915 51.2451 57.2821 51.2451 56.0347C51.2451 55.0032 51.4595 54.0615 51.8884 53.2098C52.3057 52.3462 52.891 51.6447 53.6443 51.105C54.3979 50.5652 55.2613 50.2413 56.235 50.1334V51.4107C55.5163 51.5306 54.8788 51.7885 54.3225 52.1843C53.7662 52.5802 53.3373 53.0839 53.036 53.6956C52.7229 54.3075 52.5666 54.9851 52.5666 55.7288C52.5666 56.6163 52.7809 57.402 53.2098 58.0858C53.627 58.7693 54.2182 59.3031 54.9831 59.6869C55.7365 60.0707 56.6059 60.2627 57.5911 60.2627C58.5646 60.2627 59.434 60.0707 60.1989 59.6869C60.9641 59.3031 61.5609 58.7693 61.9898 58.0858C62.4071 57.3901 62.6157 56.6043 62.6157 55.7288C62.6157 54.9851 62.4592 54.3075 62.1463 53.6956C61.8333 53.0839 61.3988 52.5802 60.8424 52.1843C60.2859 51.7885 59.6484 51.5306 58.9297 51.4107V50.1334C59.9034 50.2413 60.7728 50.5652 61.5377 51.105C62.2911 51.6447 62.8823 52.3462 63.3112 53.2098C63.7284 54.0615 63.9372 55.0032 63.9372 56.0347Z" fill="white"/>
<path d="M52.6881 44.3659V48.8999H51.5059V37.6549H52.6881V42.2068H63.6763V44.3659H52.6881Z" fill="white"/>
<path d="M51.5059 32.6967V30.5016L63.6763 25.5179V27.8209L60.1815 29.2422V34.9637L63.6763 36.385V37.6983L51.5059 32.6967ZM59.1731 29.584L53.1402 32.0669V32.139L59.1731 34.6219V29.584Z" fill="white"/>
<path d="M51.5059 22.7651V20.6061H56.9998V14.1829H51.5059V12.0239H63.6763V14.1829H58.1821V20.6061H63.6763V22.7651H51.5059Z" fill="white"/>
</g>
<defs>
<clipPath id="clip0_652_36">
<rect width="64" height="62.4578" fill="white"/>
</clipPath>
</defs>
</svg>
