<svg width="64" height="63" viewBox="0 0 64 63" fill="none" xmlns="http://www.w3.org/2000/svg">
<g clip-path="url(#clip0_1909_1619)">
<mask id="mask0_1909_1619" style="mask-type:luminance" maskUnits="userSpaceOnUse" x="0" y="0" width="47" height="63">
<path d="M46.4258 0H0V62.4578H46.4258V0Z" fill="white"/>
</mask>
<g mask="url(#mask0_1909_1619)">
<path d="M23.2052 62.4571C15.7482 62.4571 8.2893 62.4571 0.832334 62.4571C0.279968 62.4571 0.00378388 62.1859 0.00378388 61.6435C0.00378388 49.2548 -0.00780425 36.8662 0.00957794 24.4797C0.015372 20.9742 1.32869 17.9913 3.88193 15.5849C4.50576 14.9968 5.23197 14.5147 5.93111 14.0115C6.21115 13.8109 6.3309 13.5873 6.32897 13.2498C6.31931 12.0949 6.32897 10.9399 6.32509 9.78297C6.31738 6.49541 7.63842 3.85186 10.2573 1.88318C11.4297 1.002 12.7642 0.460183 14.2359 0.215302C16.4454 -0.149125 18.6607 0.0706882 20.8721 0.0398373C22.197 0.0224834 23.5393 0.0745446 24.8468 0.271219C26.0983 0.458253 27.2416 1.03093 28.273 1.79449C29.7891 2.91476 30.8939 4.3474 31.4693 6.13676C31.7359 6.96589 31.8691 7.85092 31.9464 8.72246C32.0256 9.63064 31.9638 10.5504 31.9638 11.4643C31.9638 11.9477 32.1988 12.1893 32.6687 12.1893C35.1447 12.1893 37.6208 12.1527 40.0948 12.2009C42.0918 12.2414 43.6794 13.1843 44.9213 14.7037C46.0202 16.0496 46.4278 17.621 46.4239 19.3545C46.4066 33.4592 46.4143 47.5658 46.4143 61.6704C46.4143 62.1961 46.1515 62.4591 45.6262 62.4591C38.1519 62.4591 30.6776 62.4591 23.2052 62.4591V62.4571ZM44.6045 42.1495C44.6585 42.1302 44.7127 42.1129 44.7649 42.0936C44.7784 41.8777 44.8015 41.6637 44.8015 41.4476C44.8015 34.082 44.8112 26.7182 44.79 19.3526C44.7881 18.643 44.703 17.9006 44.481 17.2315C43.7238 14.9621 41.8986 13.7724 39.9171 13.6683C37.4335 13.5371 34.9361 13.6413 32.4447 13.6316C32.0933 13.6316 31.9483 13.7473 31.9599 14.104C31.9773 14.6015 31.9638 15.099 31.9638 15.5964C31.9638 20.6195 31.9638 25.6404 31.9599 30.6632C31.9599 30.8639 31.9252 31.2224 31.8556 31.2359C31.4404 31.315 31.0059 31.3477 30.5849 31.3092C30.5037 31.3015 30.4033 30.9121 30.4033 30.6998C30.3936 23.608 30.3975 16.5162 30.3936 9.42432C30.3936 7.11629 29.6307 5.1206 27.9061 3.54335C26.6759 2.41923 25.2447 1.67687 23.5528 1.65373C20.7406 1.61517 17.9267 1.60938 15.1166 1.68265C14.3248 1.70386 13.4866 1.92175 12.7662 2.25726C9.61034 3.71881 8.01697 6.27174 7.92234 9.70969C7.84895 12.3552 7.91461 15.0045 7.90109 17.6519C7.89915 18.0645 8.01697 18.2207 8.44766 18.2111C9.57171 18.186 10.6977 18.2072 11.8217 18.2014C12.1732 18.2014 12.4031 18.3171 12.4687 18.697C12.7932 20.5751 13.1273 22.4512 13.4557 24.3291C13.5522 24.8807 13.6411 25.4341 13.7434 25.9854C13.7936 26.2613 13.9269 26.4598 14.2533 26.4579C15.2016 26.4541 16.1499 26.456 17.0982 26.456C17.3782 26.456 17.4903 26.3114 17.5134 26.0396C17.5714 25.3686 17.5791 25.3705 18.2744 25.3686C18.4038 25.3686 18.5332 25.3821 18.6607 25.3666C19.045 25.3204 19.1589 25.4862 19.1531 25.864C19.1338 27.3237 19.1589 28.7833 19.1416 30.2449C19.128 31.5311 19.3945 31.3439 17.9789 31.3651C17.6216 31.3709 17.4999 31.2186 17.5076 30.8735C17.5231 30.1042 17.4903 29.3329 17.5212 28.5636C17.5385 28.1161 17.3821 27.9812 16.9417 27.9889C15.6246 28.012 14.3055 28.0082 12.9883 27.9851C12.8067 27.9812 12.5383 27.8636 12.4687 27.721C12.3297 27.4412 12.2833 27.1097 12.2292 26.7953C11.8565 24.6493 11.4818 22.5013 11.1303 20.3513C11.0589 19.9079 10.8522 19.7728 10.4196 19.7805C9.31098 19.8038 8.20238 19.7903 7.09379 19.7865C6.43326 19.7846 6.32897 19.6784 6.32704 19.0363C6.32317 18.1378 6.32897 17.2393 6.32317 16.3407C6.32317 16.1614 6.27875 15.9802 6.25558 15.8066C6.159 15.8066 6.12232 15.7951 6.0972 15.8085C6.02574 15.8452 5.95621 15.8857 5.8944 15.932C4.58302 16.9288 3.54589 18.1571 2.81971 19.634C2.23837 20.8142 1.75359 21.9594 2.11089 23.3863C2.61691 25.4013 2.88536 27.4759 3.25811 29.5237C3.5227 30.9738 3.79889 32.4219 4.06348 33.8719C4.43044 35.8732 4.78967 37.8748 5.1547 39.8761C5.34397 40.9156 5.5371 41.9548 5.72639 42.994C5.93496 44.1433 6.13776 45.2963 6.35021 46.4456C6.61866 47.8937 6.94507 49.3339 7.14593 50.7916C7.25602 51.5841 7.43563 52.2069 8.21203 52.6042C9.13716 53.0765 9.96184 53.8247 11.1264 53.3813C11.2539 53.3329 11.4142 53.3717 11.5571 53.3582C12.4823 53.2712 13.4093 53.1864 14.3344 53.0881C15.64 52.9474 16.9456 52.7951 18.2512 52.6466C19.1898 52.5385 20.1305 52.4305 21.0691 52.3226C22.166 52.1954 23.263 52.0546 24.362 51.939C25.3334 51.8368 26.3127 51.7788 27.2821 51.6651C29.0321 51.4569 30.7742 51.2043 32.524 50.9998C34.5924 50.7569 36.6628 50.5391 38.7352 50.3251C40.5835 50.1341 42.4337 49.9625 44.284 49.7909C44.5465 49.7659 44.7512 49.7177 44.7977 49.4052C44.8652 48.9483 44.7746 48.823 44.3032 48.823C42.2309 48.823 40.1565 48.8307 38.0842 48.823C37.893 48.823 37.5493 48.7498 37.5358 48.6686C37.472 48.2811 37.4373 47.8665 37.5262 47.4925C37.5551 47.3749 37.9973 47.2997 38.2504 47.2978C40.2435 47.2824 42.2367 47.2843 44.2298 47.2901C44.5872 47.2901 44.8093 47.2149 44.8112 46.7887C44.8131 46.3453 44.566 46.2931 44.2202 46.3047C43.9304 46.3143 43.6409 46.3047 43.3531 46.3047C42.2599 46.3047 41.1667 46.297 40.0736 46.3066C39.6603 46.3104 39.4207 46.1794 39.4826 45.7206C39.4961 45.6107 39.498 45.4948 39.4826 45.385C39.4111 44.8895 39.6389 44.7486 40.1122 44.7583C41.3174 44.7835 42.5226 44.7679 43.7276 44.764C43.9092 44.764 44.0908 44.7274 44.282 44.7081C44.0889 44.0701 43.8396 43.8636 43.2989 43.8597C42.8972 43.8559 42.4954 43.8597 42.0937 43.8597C41.0739 43.8597 41.0876 43.8597 41.1088 42.8629C41.1165 42.4851 41.2594 42.3442 41.6283 42.3673C41.9508 42.3866 42.2753 42.3712 42.6789 42.3712C42.4781 41.87 42.3081 41.5131 41.8485 41.5112C40.033 41.4977 38.2155 41.4977 36.4002 41.5228C36.2417 41.5247 35.9792 41.735 35.9462 41.8892C35.7415 42.8282 35.5697 43.7749 35.4325 44.7236C35.3727 45.1324 35.1931 45.2577 34.801 45.2577C28.5974 45.25 22.394 45.25 16.1905 45.2577C15.7791 45.2577 15.5937 45.1189 15.5338 44.6889C15.3909 43.692 15.1958 42.701 15.0123 41.708C14.6357 39.6776 14.2495 37.649 13.8709 35.6188C13.6739 34.5639 13.5117 33.5016 13.2799 32.4566C13.0752 31.5349 13.0539 31.5157 13.9211 31.2244C14.5256 31.022 14.6975 31.1183 14.8153 31.7489C14.9525 32.4893 15.0703 33.2317 15.2093 33.9702C15.4816 35.4337 15.7675 36.897 16.0379 38.3606C16.3392 39.9976 16.6443 41.6346 16.9186 43.2776C16.9939 43.7287 17.2044 43.8193 17.6274 43.8173C22.7377 43.8038 27.8481 43.8077 32.9604 43.8077C33.8682 43.8077 33.9144 43.8154 34.0767 42.9439C34.3104 41.6868 34.5866 40.4219 34.6329 39.153C34.7217 36.7332 34.6562 34.3076 34.6639 31.8858C34.6639 31.7065 34.7217 31.3824 34.7952 31.3709C35.195 31.3015 35.6199 31.2494 36.012 31.3208C36.1413 31.3439 36.2764 31.7547 36.2784 31.9899C36.2978 34.429 36.2901 36.8681 36.2901 39.3075C36.2901 39.9629 36.294 39.9629 36.966 39.9629C38.7331 39.9629 40.5024 39.9918 42.2695 39.9475C42.8817 39.932 43.2526 40.1289 43.5539 40.6455C43.8629 41.1758 44.255 41.6579 44.6122 42.1591L44.6045 42.1495ZM10.8754 60.9686C11.1284 60.984 11.3601 61.011 11.5919 61.011C22.4095 61.0129 33.227 61.011 44.0424 61.011C44.1546 61.011 44.2685 61.0052 44.3805 61.011C44.6876 61.0283 44.8208 60.8915 44.8054 60.583C44.7919 60.311 44.8035 60.0373 44.8035 59.7655C44.8035 57.0852 44.8015 54.4051 44.8073 51.7267C44.8073 51.4164 44.7861 51.1793 44.3767 51.2275C43.5482 51.3258 42.7194 51.4067 41.8909 51.5031C40.7456 51.6381 39.6023 51.7903 38.4551 51.9178C37.4836 52.0257 36.5103 52.1067 35.5368 52.205C34.8029 52.2783 34.069 52.3534 33.339 52.4402C32.2419 52.5732 31.1468 52.7315 30.048 52.8548C29.0126 52.9705 27.9736 53.0534 26.9384 53.1575C26.1562 53.2365 25.376 53.3233 24.5957 53.416C23.4504 53.5509 22.3071 53.7013 21.1599 53.8304C20.1883 53.9384 19.213 54.0155 18.2415 54.1196C16.9031 54.2624 15.5666 54.409 14.2301 54.567C13.1969 54.6885 12.1655 54.8311 11.1342 54.9643C10.155 55.0916 9.19123 55.1899 8.35303 54.4649C8.06719 54.2181 7.69637 54.0695 7.36804 53.8709C7.0455 53.6762 6.82146 53.6859 6.57425 54.0425C5.34591 55.8204 4.08473 57.577 2.839 59.3431C2.48365 59.8484 2.13986 60.3611 1.78449 60.8799C2.44116 61.1421 2.69803 61.063 3.07463 60.5194C4.16199 58.9537 5.24548 57.388 6.34055 55.8281C7.00687 54.8793 7.03584 54.8851 7.94358 55.5966C8.20045 55.7973 8.22362 55.9901 8.03821 56.2464C7.45109 57.064 6.86782 57.8873 6.28841 58.7126C5.78433 59.4279 5.28797 60.1472 4.78196 60.8741C5.44635 61.1652 5.8384 61.0553 6.18217 60.5406C6.7249 59.7308 7.26954 58.9229 7.82769 58.1227C8.45924 57.2163 8.46117 57.2278 9.37084 57.8873C9.65475 58.0938 9.68565 58.302 9.48481 58.5757C9.23952 58.9113 8.9981 59.2487 8.7644 59.5918C8.47278 60.0199 8.19079 60.4539 7.89529 60.8992C8.55582 61.117 8.78757 61.0476 9.10046 60.5792C9.26848 60.3264 9.43459 60.0701 9.60454 59.8175C9.93867 59.32 10.0198 59.3046 10.5084 59.646C10.9822 59.9762 11.1052 60.4172 10.8773 60.9686H10.8754ZM1.80187 30.7133C1.76904 30.7191 1.73621 30.727 1.70337 30.7328V58.0745C1.9081 57.8353 2.02784 57.7157 2.12442 57.5808C3.08816 56.2233 4.05575 54.8678 5.00405 53.4989C5.42508 52.8934 5.89055 52.3496 5.66266 51.4626C5.2957 50.0396 5.07939 48.578 4.81479 47.1282C4.45361 45.1594 4.10985 43.1868 3.75254 41.2182C3.20984 38.2237 2.66713 35.2311 2.11862 32.2385C2.02591 31.7277 1.9081 31.2205 1.79994 30.7133H1.80187Z" fill="black"/>
<path d="M26.8574 15.0994C26.8651 16.827 25.6813 17.8259 24.1882 18.1189C24.0859 18.1382 23.8831 18.1132 23.8754 18.0765C23.7942 17.7025 23.7034 17.3207 23.7034 16.9408C23.7034 16.8058 23.9197 16.5937 24.0762 16.5475C24.8294 16.3238 25.2234 15.8533 25.2234 15.1013C25.2234 14.2934 24.8352 13.8403 24.0067 13.6147C23.8792 13.58 23.7846 13.3987 23.6919 13.2734C23.661 13.231 23.6822 13.1481 23.6784 13.0844C23.6456 12.0779 23.9585 11.8466 24.9028 12.2457C26.164 12.7779 26.8728 13.7555 26.8593 15.0994H26.8574Z" fill="black"/>
<path d="M14.815 12.9123C14.815 13.3931 14.5806 13.6341 14.112 13.6354C13.3896 13.6354 12.6673 13.645 11.945 13.6335C11.636 13.6277 11.466 13.7279 11.5684 14.0519C11.692 14.4471 11.5201 14.6187 11.1551 14.6824C11.1087 14.6901 11.0643 14.7152 11.0179 14.7287C10.2647 14.9465 10.1295 14.8906 9.95762 14.156C9.80504 13.5023 9.71234 12.8352 9.57713 12.1777C9.49601 11.7862 9.67178 11.6011 10.031 11.5452C10.2512 11.5105 10.4868 11.4507 10.6954 11.4932C10.8615 11.5279 11.0894 11.6744 11.1319 11.8171C11.2265 12.141 11.4119 12.195 11.6997 12.1912C12.5012 12.1796 13.3046 12.1873 14.1061 12.1873C14.5774 12.1873 14.813 12.4296 14.813 12.9142L14.815 12.9123Z" fill="black"/>
</g>
<path d="M63.9372 56.0351C63.9372 57.2825 63.6706 58.3919 63.1374 59.3635C62.5926 60.335 61.839 61.0967 60.8771 61.6486C59.915 62.1883 58.8197 62.4582 57.5911 62.4582C56.3508 62.4582 55.2497 62.1883 54.2876 61.6486C53.3257 61.0967 52.5781 60.335 52.0449 59.3635C51.5117 58.3919 51.2451 57.2825 51.2451 56.0351C51.2451 55.0036 51.4595 54.0619 51.8884 53.2102C52.3057 52.3466 52.891 51.6451 53.6443 51.1054C54.3979 50.5656 55.2613 50.2417 56.235 50.1338V51.4111C55.5163 51.531 54.8788 51.7889 54.3225 52.1847C53.7662 52.5806 53.3373 53.0843 53.036 53.696C52.7229 54.3079 52.5666 54.9855 52.5666 55.7292C52.5666 56.6167 52.7809 57.4024 53.2098 58.0862C53.627 58.7697 54.2182 59.3035 54.9831 59.6873C55.7365 60.0711 56.6059 60.2631 57.5911 60.2631C58.5646 60.2631 59.434 60.0711 60.1989 59.6873C60.9641 59.3035 61.5609 58.7697 61.9898 58.0862C62.4071 57.3905 62.6157 56.6047 62.6157 55.7292C62.6157 54.9855 62.4592 54.3079 62.1463 53.696C61.8333 53.0843 61.3988 52.5806 60.8424 52.1847C60.2859 51.7889 59.6484 51.531 58.9297 51.4111V50.1338C59.9034 50.2417 60.7728 50.5656 61.5377 51.1054C62.2911 51.6451 62.8823 52.3466 63.3112 53.2102C63.7284 54.0619 63.9372 55.0036 63.9372 56.0351Z" fill="black"/>
<path d="M52.6881 44.3662V48.9002H51.5059V37.6553H52.6881V42.2072H63.6763V44.3662H52.6881Z" fill="black"/>
<path d="M51.5059 32.6964V30.5013L63.6763 25.5176V27.8206L60.1815 29.2419V34.9634L63.6763 36.3847V37.698L51.5059 32.6964ZM59.1731 29.5837L53.1402 32.0666V32.1387L59.1731 34.6216V29.5837Z" fill="black"/>
<path d="M51.5059 22.7647V20.6056H56.9998V14.1825H51.5059V12.0234H63.6763V14.1825H58.1821V20.6056H63.6763V22.7647H51.5059Z" fill="black"/>
</g>
<defs>
<clipPath id="clip0_1909_1619">
<rect width="64" height="62.4578" fill="white"/>
</clipPath>
</defs>
</svg>
