<svg width="64" height="64" viewBox="0 0 64 64" fill="none" xmlns="http://www.w3.org/2000/svg">
<path d="M18.8509 7.60425C20.0632 6.54575 22.8898 4.25865 25.0866 6.82608C27.2835 9.3935 23.8104 10.9212 22.8189 12.0735C24.6065 13.7797 26.5291 15.9588 26.5291 15.9588C26.5291 15.9588 24.3767 18.202 20.7378 20.8506C19.8063 19.3315 18.0204 16.285 15.549 18.2595C13.0776 20.234 16.2155 22.5648 16.9695 23.5741C14.2767 25.6599 14.2767 25.6599 11.5839 27.7456C7.29189 22.0081 7.29189 22.0081 3 16.2706C6.57279 12.7209 11.4271 8.03073 15.549 5.13698C16.4837 4.48093 17.9364 6.32609 18.8509 7.60425Z" stroke="white" stroke-width="1.81335" stroke-miterlimit="10" stroke-linecap="round" stroke-linejoin="round"/>
<path d="M3.20605 44.2902C8.72964 38.6068 8.72964 38.6068 14.2532 32.9233C16.5502 35.2793 16.5502 35.2793 18.8471 37.6351C20.0739 35.1656 20.3196 34.3526 23.254 33.9947C26.1026 33.6472 29.1202 36.2411 27.3356 39.1245C26.6254 40.2721 24.9166 41.3984 24.0495 42.0943C25.1821 43.0383 26.3565 43.9343 27.4476 44.9259C28.4931 45.8762 27.2927 46.7988 26.5877 47.5867C25.7351 48.5394 24.8055 49.4203 23.9144 50.3371C23.0615 49.5432 21.7105 48.0133 20.4249 47.6055C18.4426 46.9769 16.8677 48.7986 17.4274 50.668C17.7845 51.8602 18.9686 52.6299 19.847 53.5115C17.5619 55.6718 17.5619 55.6718 15.277 57.8321C13.088 55.934 10.6404 54.0028 8.67999 51.8035C6.64103 49.5161 4.91981 46.7707 3.20605 44.2902Z" stroke="white" stroke-width="1.81335" stroke-miterlimit="10" stroke-linecap="round" stroke-linejoin="round"/>
<path d="M33.1037 44.5606C36.5653 42.2667 36.5653 42.2667 40.0268 39.9729C40.4674 41.6054 40.6167 43.3197 41.9814 44.5281C43.8425 46.1761 48.0249 43.8144 48.0294 41.4915C48.0322 40.0843 46.3142 38.8181 45.5917 38.0625C48.6245 36.2993 48.6245 36.2993 51.6572 34.5361C55.869 42.0552 55.869 42.0552 60.0808 49.5743C58.2041 50.9254 56.4494 52.4645 54.4508 53.6274C50.6183 55.8575 46.5704 57.6949 42.6302 59.7286C40.8432 57.2894 40.8432 57.2894 39.0562 54.8501C38.0293 55.3747 34.5887 57.8323 33.1076 53.803C31.6266 49.7738 34.6594 50.2785 36.484 49.4834C35.6873 48.5728 33.4337 45.2909 33.1037 44.5606Z" stroke="white" stroke-width="1.81335" stroke-miterlimit="10" stroke-linecap="round" stroke-linejoin="round"/>
<path d="M32.9678 21.0823C35.3325 22.354 35.3325 22.354 37.6972 23.6257C37.3942 25.5336 35.6931 27.5857 38.2748 29.2661C40.8565 30.9466 41.5803 29.0475 43.305 26.6901C46.2605 28.098 46.2605 28.098 49.2158 29.5059C52.9154 22.5577 52.9154 22.5577 56.6151 15.6096C48.5412 10.3734 48.5412 10.3734 40.4674 5.13721C39.6116 6.78126 37.8999 10.0694 37.8999 10.0694C37.8999 10.0694 41.3294 11.8936 39.8939 14.6664C38.4585 17.4392 34.5095 15.4456 34.5095 15.4456C34.5095 15.4456 33.4817 19.2034 32.9678 21.0823Z" stroke="white" stroke-width="1.81335" stroke-miterlimit="10" stroke-linecap="round" stroke-linejoin="round"/>
<path d="M41.7725 20.5264C41.8265 20.549 41.8805 20.5716 41.9344 20.5941" stroke="white" stroke-width="1.81335" stroke-miterlimit="10" stroke-linecap="round" stroke-linejoin="round"/>
<path d="M47.3754 23.4209C47.6008 23.6825 47.6361 23.6713 47.3672 23.5316" stroke="white" stroke-width="1.81335" stroke-miterlimit="10" stroke-linecap="round" stroke-linejoin="round"/>
<path d="M49.8203 18.6198C47.6992 16.1576 47.1762 15.2091 44.1641 16.445" stroke="white" stroke-width="1.81335" stroke-miterlimit="10" stroke-linecap="round" stroke-linejoin="round"/>
<path d="M17.8564 13.5692C17.9036 13.4751 17.8703 13.4879 17.9632 13.5614" stroke="white" stroke-width="1.81335" stroke-miterlimit="10" stroke-linecap="round" stroke-linejoin="round"/>
<path d="M15.1888 39.8442C15.0769 39.7396 15.1047 39.7794 15.3324 39.8679" stroke="white" stroke-width="1.81335" stroke-miterlimit="10" stroke-linecap="round" stroke-linejoin="round"/>
<path d="M18.0839 42.6601C18.0641 42.6417 18.0442 42.6234 18.0244 42.605" stroke="white" stroke-width="1.81335" stroke-miterlimit="10" stroke-linecap="round" stroke-linejoin="round"/>
<path d="M11.489 41.9117C11.5881 41.8058 11.2101 42.3216 11.1641 42.4368C10.9707 42.9197 10.8684 43.4306 11.1 43.9243C11.5227 44.8253 12.7613 45.0305 13.6254 45.1243" stroke="white" stroke-width="1.81335" stroke-miterlimit="10" stroke-linecap="round" stroke-linejoin="round"/>
<path d="M42.9287 49.3179C43.1003 49.4894 42.9903 49.4344 43.2785 49.4344" stroke="white" stroke-width="1.81335" stroke-miterlimit="10" stroke-linecap="round" stroke-linejoin="round"/>
<path d="M50.4501 45.8778C50.1473 46.0292 50.2169 46.0814 50.2169 45.7612" stroke="white" stroke-width="1.81335" stroke-miterlimit="10" stroke-linecap="round" stroke-linejoin="round"/>
<path d="M46.4268 53.0496C48.884 53.8687 51.1873 51.2057 51.9657 49.2598" stroke="white" stroke-width="1.81335" stroke-miterlimit="10" stroke-linecap="round" stroke-linejoin="round"/>
</svg>
